<mxfile host="app.diagrams.net" modified="2024-01-09T03:24:09.447Z" agent="Mozilla/5.0 (Windows NT 10.0; Win64; x64) AppleWebKit/537.36 (KHTML, like Gecko) Chrome/120.0.0.0 Safari/537.36 Edg/120.0.0.0" etag="lG2i7zpX7RN_64F_cvc1" version="22.1.17" type="github">
  <diagram name="Trang-1" id="3MHq3e8uxHSeCojH_CD0">
    <mxGraphModel dx="771" dy="537" grid="1" gridSize="10" guides="1" tooltips="1" connect="1" arrows="1" fold="1" page="1" pageScale="1" pageWidth="827" pageHeight="1169" math="0" shadow="0">
      <root>
        <mxCell id="0" />
        <mxCell id="1" parent="0" />
        <mxCell id="IOJXYS6W1uLF5T40510P-1" style="edgeStyle=orthogonalEdgeStyle;rounded=1;orthogonalLoop=1;jettySize=auto;html=1;exitX=0.5;exitY=1;exitDx=0;exitDy=0;entryX=0.5;entryY=0;entryDx=0;entryDy=0;labelBackgroundColor=none;strokeColor=#457B9D;fontColor=default;fontSize=15;" parent="1" source="IOJXYS6W1uLF5T40510P-2" target="IOJXYS6W1uLF5T40510P-27" edge="1">
          <mxGeometry relative="1" as="geometry" />
        </mxCell>
        <mxCell id="IOJXYS6W1uLF5T40510P-2" value="Bắt đầu" style="ellipse;whiteSpace=wrap;html=1;labelBackgroundColor=none;fillColor=#A8DADC;strokeColor=#457B9D;fontColor=#1D3557;rounded=1;fontSize=15;" parent="1" vertex="1">
          <mxGeometry x="280" y="80" width="160" height="80" as="geometry" />
        </mxCell>
        <mxCell id="IOJXYS6W1uLF5T40510P-3" style="edgeStyle=orthogonalEdgeStyle;rounded=1;orthogonalLoop=1;jettySize=auto;html=1;exitX=0.5;exitY=1;exitDx=0;exitDy=0;entryX=0.5;entryY=0;entryDx=0;entryDy=0;labelBackgroundColor=none;strokeColor=#457B9D;fontColor=default;fontSize=15;" parent="1" source="IOJXYS6W1uLF5T40510P-4" edge="1">
          <mxGeometry relative="1" as="geometry">
            <mxPoint x="360" y="440" as="targetPoint" />
          </mxGeometry>
        </mxCell>
        <mxCell id="IOJXYS6W1uLF5T40510P-4" value="&lt;font style=&quot;font-size: 15px;&quot;&gt;ip_address = a&lt;br style=&quot;font-size: 15px;&quot;&gt;&lt;/font&gt;" style="shape=parallelogram;perimeter=parallelogramPerimeter;whiteSpace=wrap;html=1;fixedSize=1;labelBackgroundColor=none;fillColor=#A8DADC;strokeColor=#457B9D;fontColor=#1D3557;rounded=1;fontSize=15;" parent="1" vertex="1">
          <mxGeometry x="280" y="320" width="160" height="80" as="geometry" />
        </mxCell>
        <mxCell id="IOJXYS6W1uLF5T40510P-28" style="edgeStyle=orthogonalEdgeStyle;rounded=0;orthogonalLoop=1;jettySize=auto;html=1;exitX=0.5;exitY=1;exitDx=0;exitDy=0;entryX=0.5;entryY=0;entryDx=0;entryDy=0;labelBackgroundColor=none;strokeColor=#457B9D;fontColor=default;fontSize=15;" parent="1" source="IOJXYS6W1uLF5T40510P-11" target="IOJXYS6W1uLF5T40510P-20" edge="1">
          <mxGeometry relative="1" as="geometry" />
        </mxCell>
        <mxCell id="IOJXYS6W1uLF5T40510P-11" value="Xóa dòng có ip_address" style="rounded=1;whiteSpace=wrap;html=1;labelBackgroundColor=none;fillColor=#A8DADC;strokeColor=#457B9D;fontColor=#1D3557;fontSize=15;" parent="1" vertex="1">
          <mxGeometry x="280" y="560" width="160" height="80" as="geometry" />
        </mxCell>
        <mxCell id="IOJXYS6W1uLF5T40510P-14" style="edgeStyle=orthogonalEdgeStyle;rounded=1;orthogonalLoop=1;jettySize=auto;html=1;entryX=0.5;entryY=0;entryDx=0;entryDy=0;labelBackgroundColor=none;strokeColor=#457B9D;fontColor=default;fontSize=15;" parent="1" source="yGgmZ2WQIL-zvazqZqoI-1" edge="1">
          <mxGeometry relative="1" as="geometry">
            <mxPoint x="360" y="560" as="targetPoint" />
            <mxPoint x="360" y="520" as="sourcePoint" />
          </mxGeometry>
        </mxCell>
        <mxCell id="IOJXYS6W1uLF5T40510P-15" value="Đúng" style="edgeLabel;html=1;align=center;verticalAlign=middle;resizable=0;points=[];labelBackgroundColor=none;fontColor=#1D3557;rounded=1;fontSize=15;" parent="IOJXYS6W1uLF5T40510P-14" vertex="1" connectable="0">
          <mxGeometry x="-0.1974" y="1" relative="1" as="geometry">
            <mxPoint x="29" y="4" as="offset" />
          </mxGeometry>
        </mxCell>
        <mxCell id="IOJXYS6W1uLF5T40510P-29" style="edgeStyle=orthogonalEdgeStyle;rounded=0;orthogonalLoop=1;jettySize=auto;html=1;exitX=0.076;exitY=0.507;exitDx=0;exitDy=0;entryX=0.5;entryY=0;entryDx=0;entryDy=0;labelBackgroundColor=none;strokeColor=#457B9D;fontColor=default;exitPerimeter=0;fontSize=15;" parent="1" source="yGgmZ2WQIL-zvazqZqoI-1" target="IOJXYS6W1uLF5T40510P-25" edge="1">
          <mxGeometry relative="1" as="geometry">
            <mxPoint x="440" y="480" as="sourcePoint" />
          </mxGeometry>
        </mxCell>
        <mxCell id="IOJXYS6W1uLF5T40510P-31" value="Sai" style="edgeLabel;html=1;align=center;verticalAlign=middle;resizable=0;points=[];fontColor=#1D3557;fontSize=15;" parent="IOJXYS6W1uLF5T40510P-29" vertex="1" connectable="0">
          <mxGeometry x="-0.5628" y="1" relative="1" as="geometry">
            <mxPoint x="109" y="-10" as="offset" />
          </mxGeometry>
        </mxCell>
        <mxCell id="IOJXYS6W1uLF5T40510P-19" style="edgeStyle=orthogonalEdgeStyle;rounded=1;orthogonalLoop=1;jettySize=auto;html=1;exitX=0.5;exitY=1;exitDx=0;exitDy=0;labelBackgroundColor=none;strokeColor=#457B9D;fontColor=default;fontSize=15;" parent="1" source="IOJXYS6W1uLF5T40510P-20" edge="1">
          <mxGeometry relative="1" as="geometry">
            <mxPoint x="359.57894736842104" y="800" as="targetPoint" />
          </mxGeometry>
        </mxCell>
        <mxCell id="IOJXYS6W1uLF5T40510P-20" value="Thông báo thành công" style="rounded=1;whiteSpace=wrap;html=1;labelBackgroundColor=none;fillColor=#A8DADC;strokeColor=#457B9D;fontColor=#1D3557;fontSize=15;" parent="1" vertex="1">
          <mxGeometry x="280" y="680" width="160" height="80" as="geometry" />
        </mxCell>
        <mxCell id="IOJXYS6W1uLF5T40510P-21" style="edgeStyle=orthogonalEdgeStyle;rounded=1;orthogonalLoop=1;jettySize=auto;html=1;exitX=0.5;exitY=1;exitDx=0;exitDy=0;entryX=0.5;entryY=0;entryDx=0;entryDy=0;labelBackgroundColor=none;strokeColor=#457B9D;fontColor=default;fontSize=15;" parent="1" source="IOJXYS6W1uLF5T40510P-22" target="IOJXYS6W1uLF5T40510P-23" edge="1">
          <mxGeometry relative="1" as="geometry" />
        </mxCell>
        <mxCell id="IOJXYS6W1uLF5T40510P-22" value="Làm mới bảng hiển thị &lt;br style=&quot;font-size: 15px;&quot;&gt;địa chỉ chặn" style="rounded=1;whiteSpace=wrap;html=1;labelBackgroundColor=none;fillColor=#A8DADC;strokeColor=#457B9D;fontColor=#1D3557;fontSize=15;" parent="1" vertex="1">
          <mxGeometry x="280" y="800" width="160" height="80" as="geometry" />
        </mxCell>
        <mxCell id="IOJXYS6W1uLF5T40510P-23" value="&amp;nbsp;Kết thúc" style="ellipse;whiteSpace=wrap;html=1;labelBackgroundColor=none;fillColor=#A8DADC;strokeColor=#457B9D;fontColor=#1D3557;rounded=1;fontSize=15;" parent="1" vertex="1">
          <mxGeometry x="280" y="920" width="160" height="80" as="geometry" />
        </mxCell>
        <mxCell id="IOJXYS6W1uLF5T40510P-30" style="edgeStyle=orthogonalEdgeStyle;rounded=0;orthogonalLoop=1;jettySize=auto;html=1;exitX=0.5;exitY=1;exitDx=0;exitDy=0;entryX=1;entryY=0.5;entryDx=0;entryDy=0;labelBackgroundColor=none;strokeColor=#457B9D;fontColor=default;fontSize=15;" parent="1" source="IOJXYS6W1uLF5T40510P-25" target="IOJXYS6W1uLF5T40510P-23" edge="1">
          <mxGeometry relative="1" as="geometry" />
        </mxCell>
        <mxCell id="IOJXYS6W1uLF5T40510P-25" value="Thông báo lỗi" style="rounded=1;whiteSpace=wrap;html=1;labelBackgroundColor=none;fillColor=#A8DADC;strokeColor=#457B9D;fontColor=#1D3557;fontSize=15;" parent="1" vertex="1">
          <mxGeometry x="520" y="680" width="160" height="80" as="geometry" />
        </mxCell>
        <mxCell id="IOJXYS6W1uLF5T40510P-26" style="edgeStyle=orthogonalEdgeStyle;rounded=1;orthogonalLoop=1;jettySize=auto;html=1;exitX=0.5;exitY=1;exitDx=0;exitDy=0;strokeColor=#457B9D;fontColor=default;fillColor=#A8DADC;labelBackgroundColor=none;fontSize=15;" parent="1" source="IOJXYS6W1uLF5T40510P-27" target="IOJXYS6W1uLF5T40510P-4" edge="1">
          <mxGeometry relative="1" as="geometry" />
        </mxCell>
        <mxCell id="IOJXYS6W1uLF5T40510P-27" value="Nhận file_path" style="rounded=1;whiteSpace=wrap;html=1;labelBackgroundColor=none;fillColor=#A8DADC;strokeColor=#457B9D;fontColor=#1D3557;fontSize=15;" parent="1" vertex="1">
          <mxGeometry x="280" y="200" width="160" height="80" as="geometry" />
        </mxCell>
        <mxCell id="IOJXYS6W1uLF5T40510P-32" value="&lt;div style=&quot;text-align: left; font-size: 15px;&quot;&gt;&lt;span data-darkreader-inline-color=&quot;&quot; data-darkreader-inline-bgcolor=&quot;&quot; style=&quot;background-color: initial; color: rgb(29, 53, 87); --darkreader-inline-bgcolor: initial; --darkreader-inline-color: #a5c4e1; font-size: 15px;&quot;&gt;Chú thích:&lt;/span&gt;&lt;/div&gt;&lt;div style=&quot;text-align: left; font-size: 15px;&quot;&gt;&lt;span data-darkreader-inline-color=&quot;&quot; data-darkreader-inline-bgcolor=&quot;&quot; style=&quot;background-color: initial; color: rgb(29, 53, 87); --darkreader-inline-bgcolor: initial; --darkreader-inline-color: #a5c4e1; font-size: 15px;&quot;&gt;a&lt;/span&gt;&lt;span data-darkreader-inline-color=&quot;&quot; data-darkreader-inline-bgcolor=&quot;&quot; style=&quot;background-color: initial; color: rgb(29, 53, 87); --darkreader-inline-bgcolor: initial; --darkreader-inline-color: #a5c4e1;&quot;&gt;: địa chỉ được chọn&lt;/span&gt;&lt;/div&gt;&lt;span style=&quot;font-size: 15px;&quot;&gt;&lt;div style=&quot;text-align: left; font-size: 15px;&quot;&gt;&lt;span data-darkreader-inline-color=&quot;&quot; data-darkreader-inline-bgcolor=&quot;&quot; style=&quot;background-color: initial; color: rgb(29, 53, 87); --darkreader-inline-bgcolor: initial; --darkreader-inline-color: #a5c4e1; font-size: 15px;&quot;&gt;từ bảng hiển thị địa chỉ&amp;nbsp;&lt;/span&gt;&lt;/div&gt;&lt;/span&gt;&lt;span style=&quot;font-size: 15px;&quot;&gt;&lt;div style=&quot;text-align: left; font-size: 15px;&quot;&gt;&lt;span data-darkreader-inline-color=&quot;&quot; data-darkreader-inline-bgcolor=&quot;&quot; style=&quot;background-color: initial; color: rgb(29, 53, 87); --darkreader-inline-bgcolor: initial; --darkreader-inline-color: #a5c4e1; font-size: 15px;&quot;&gt;đã chặn&lt;/span&gt;&lt;/div&gt;&lt;/span&gt;" style="text;html=1;align=center;verticalAlign=middle;resizable=0;points=[];autosize=1;strokeColor=none;fillColor=none;fontColor=#1D3557;fontSize=15;" parent="1" vertex="1">
          <mxGeometry x="105" y="990" width="180" height="90" as="geometry" />
        </mxCell>
        <mxCell id="yGgmZ2WQIL-zvazqZqoI-1" value="&lt;font style=&quot;font-size: 15px;&quot;&gt;&amp;nbsp;ip_address có&lt;br style=&quot;font-size: 15px;&quot;&gt;&amp;nbsp;trong&amp;nbsp;file_path&lt;/font&gt;" style="rhombus;whiteSpace=wrap;html=1;labelBackgroundColor=none;fillColor=#A8DADC;strokeColor=#457B9D;fontColor=#1D3557;rounded=1;fontSize=15;" vertex="1" parent="1">
          <mxGeometry x="277.5" y="440" width="165" height="80" as="geometry" />
        </mxCell>
      </root>
    </mxGraphModel>
  </diagram>
</mxfile>
